<?xml version="1.0" encoding="UTF-8" standalone="no"?>
<svg
   xmlns:dc="http://purl.org/dc/elements/1.1/"
   xmlns:cc="http://creativecommons.org/ns#"
   xmlns:rdf="http://www.w3.org/1999/02/22-rdf-syntax-ns#"
   xmlns:svg="http://www.w3.org/2000/svg"
   xmlns="http://www.w3.org/2000/svg"
   xmlns:sodipodi="http://sodipodi.sourceforge.net/DTD/sodipodi-0.dtd"
   xmlns:inkscape="http://www.inkscape.org/namespaces/inkscape"
   sodipodi:docname="mintime_monochrome.svg"
   inkscape:version="1.0 (4035a4fb49, 2020-05-01)"
   id="svg8"
   version="1.1"
   viewBox="0 0 96 96"
   height="96mm"
   width="96mm">
  <defs
     id="defs2" />
  <sodipodi:namedview
     inkscape:window-maximized="1"
     inkscape:window-y="-9"
     inkscape:window-x="3831"
     inkscape:window-height="1001"
     inkscape:window-width="1920"
     fit-margin-bottom="0"
     fit-margin-right="0"
     fit-margin-left="0"
     fit-margin-top="0"
     showgrid="false"
     inkscape:document-rotation="0"
     inkscape:current-layer="layer1"
     inkscape:document-units="mm"
     inkscape:cy="349.47368"
     inkscape:cx="126.31581"
     inkscape:zoom="0.76"
     inkscape:pageshadow="2"
     inkscape:pageopacity="0.0"
     borderopacity="1.0"
     bordercolor="#666666"
     pagecolor="#ffffff"
     id="base" />
  <metadata
     id="metadata5">
    <rdf:RDF>
      <cc:Work
         rdf:about="">
        <dc:format>image/svg+xml</dc:format>
        <dc:type
           rdf:resource="http://purl.org/dc/dcmitype/StillImage" />
        <dc:title></dc:title>
      </cc:Work>
    </rdf:RDF>
  </metadata>
  <g
     id="layer1"
     inkscape:groupmode="layer"
     inkscape:label="Ebene 1">
    <g
       transform="matrix(2.2524738,0,0,2.2047083,-125.42154,-265.58141)"
       id="g24">
      <path
         id="path46"
         d="m 71.097323,120.46102 c 0,1.69788 0.534299,4.46434 -0.15965,6.02601 -0.410342,0.92348 -1.652534,1.03212 -2.486183,1.36271 -0.959274,0.38042 -2.110317,1.33348 -3.173968,1.28924 -1.556888,-0.0647 -3.458025,-2.88031 -4.498949,-3.91546 H 60.51399 c -1.092941,1.09294 -5.524844,4.32003 -4.73964,6.04049 0.661538,1.44946 3.473556,2.23747 3.381613,4.0147 -0.08633,1.66884 -1.590305,3.91684 -2.121561,5.55522 -0.833226,2.56964 -0.688182,5.86634 -0.09229,8.46667 2.990268,13.04846 18.997956,18.58063 30.030208,11.78269 5.305954,-3.26946 9.384506,-9.89013 8.909843,-16.28061 -0.195527,-2.63268 -2.156619,-6.01993 -1.927754,-8.46666 0.201083,-2.14842 4.843198,-3.65557 4.303448,-5.82084 -0.206375,-0.82851 -1.186392,-1.54119 -1.760538,-2.11666 -0.767027,-0.76867 -1.811602,-2.28045 -2.910416,-2.55437 -1.606815,-0.40061 -4.385733,3.43464 -5.027083,4.67103 -2.840832,-2.01713 -6.269832,-3.68125 -9.789584,-3.96875 v -6.08541 H 71.09732 m 4.233333,6.95491 c 11.630819,-1.31622 21.38971,10.5501 18.914004,21.62009 -1.766887,7.90045 -8.636529,13.22361 -16.532754,13.97793 -14.6676,1.4015 -25.416515,-15.33181 -16.874939,-27.73627 3.434344,-4.98747 8.692276,-7.20521 14.493689,-7.86175 z m -11.641666,0.98259 0.264583,0.26458 z m 0.529166,0 0.264584,0.26458 z m 32.279166,4.7625 0.264584,0.26458 z m -38.893749,5.82083 0.264584,0.26458 z m 0,0.26458 0.264584,0.26459 z m -0.264583,0.26459 0.264583,0.26458 z m 0,0.26458 0.264583,0.26458 z m 1.852083,7.9375 0.264583,0.26458 z m 0.264583,0.79375 0.264584,0.26458 z m 0.264584,0.79375 0.264583,0.26458 z"
         style="fill:#1f1f1f;stroke:none;stroke-width:0.264583" />
      <path
         id="path44"
         d="m 71.097323,120.46102 c 0,1.69788 0.534299,4.46434 -0.15965,6.02601 -0.410342,0.92348 -1.652534,1.03212 -2.486183,1.36271 -0.959274,0.38042 -2.110317,1.33348 -3.173968,1.28924 -1.556888,-0.0647 -3.458025,-2.88031 -4.498949,-3.91546 H 60.51399 c -1.092941,1.09294 -5.524844,4.32003 -4.73964,6.04049 0.661538,1.44946 3.473556,2.23747 3.381613,4.0147 -0.08633,1.66884 -1.590305,3.91684 -2.121561,5.55522 -0.833226,2.56964 -0.688182,5.86634 -0.09229,8.46667 2.990268,13.04846 18.997956,18.58063 30.030208,11.78269 5.305954,-3.26946 9.384506,-9.89013 8.909843,-16.28061 -0.195527,-2.63268 -2.156619,-6.01993 -1.927754,-8.46666 0.201083,-2.14842 4.843198,-3.65557 4.303448,-5.82084 -0.206375,-0.82851 -1.186392,-1.54119 -1.760538,-2.11666 -0.767027,-0.76867 -1.811602,-2.28045 -2.910416,-2.55437 -1.606815,-0.40061 -4.385733,3.43464 -5.027083,4.67103 -2.840832,-2.01713 -6.269832,-3.68125 -9.789584,-3.96875 v -6.08541 H 71.09732 m 4.233333,6.95491 c 11.630819,-1.31622 21.38971,10.5501 18.914004,21.62009 -1.766887,7.90045 -8.636529,13.22361 -16.532754,13.97793 -14.6676,1.4015 -25.416515,-15.33181 -16.874939,-27.73627 3.434344,-4.98747 8.692276,-7.20521 14.493689,-7.86175 z m -11.641666,0.98259 0.264583,0.26458 z m 0.529166,0 0.264584,0.26458 z m 32.279166,4.7625 0.264584,0.26458 z m -38.893749,5.82083 0.264584,0.26458 z m 0,0.26458 0.264584,0.26459 z m -0.264583,0.26459 0.264583,0.26458 z m 0,0.26458 0.264583,0.26458 z m 1.852083,7.9375 0.264583,0.26458 z m 0.264583,0.79375 0.264584,0.26458 z"
         style="fill:#1f1f1f;stroke:none;stroke-width:0.264583" />
      <path
         id="path42"
         d="m 71.097323,120.46102 c 0,1.69788 0.534299,4.46434 -0.15965,6.02601 -0.410342,0.92348 -1.652534,1.03212 -2.486183,1.36271 -0.959274,0.38042 -2.110317,1.33348 -3.173968,1.28924 -1.556888,-0.0647 -3.458025,-2.88031 -4.498949,-3.91546 H 60.51399 c -1.092941,1.09294 -5.524844,4.32003 -4.73964,6.04049 0.661538,1.44946 3.473556,2.23747 3.381613,4.0147 -0.08633,1.66884 -1.590305,3.91684 -2.121561,5.55522 -0.833226,2.56964 -0.688182,5.86634 -0.09229,8.46667 2.990268,13.04846 18.997956,18.58063 30.030208,11.78269 5.305954,-3.26946 9.384506,-9.89013 8.909843,-16.28061 -0.195527,-2.63268 -2.156619,-6.01993 -1.927754,-8.46666 0.201083,-2.14842 4.843198,-3.65557 4.303448,-5.82084 -0.206375,-0.82851 -1.186392,-1.54119 -1.760538,-2.11666 -0.767027,-0.76867 -1.811602,-2.28045 -2.910416,-2.55437 -1.606815,-0.40061 -4.385733,3.43464 -5.027083,4.67103 -2.840832,-2.01713 -6.269832,-3.68125 -9.789584,-3.96875 v -6.08541 H 71.09732 m 4.233333,6.95491 c 11.630819,-1.31622 21.38971,10.5501 18.914004,21.62009 -1.766887,7.90045 -8.636529,13.22361 -16.532754,13.97793 -14.6676,1.4015 -25.416515,-15.33181 -16.874939,-27.73627 3.434344,-4.98747 8.692276,-7.20521 14.493689,-7.86175 z m -11.641666,0.98259 0.264583,0.26458 z m 0.529166,0 0.264584,0.26458 z m 32.279166,4.7625 0.264584,0.26458 z m -38.893749,5.82083 0.264584,0.26458 z m 0,0.26458 0.264584,0.26459 z m -0.264583,0.26459 0.264583,0.26458 z m 0,0.26458 0.264583,0.26458 z m 1.852083,7.9375 0.264583,0.26458 z"
         style="fill:#1f1f1f;stroke:none;stroke-width:0.264583" />
      <path
         id="path40"
         d="m 71.097323,120.46102 c 0,1.69788 0.534299,4.46434 -0.15965,6.02601 -0.410342,0.92348 -1.652534,1.03212 -2.486183,1.36271 -0.959274,0.38042 -2.110317,1.33348 -3.173968,1.28924 -1.556888,-0.0647 -3.458025,-2.88031 -4.498949,-3.91546 H 60.51399 c -1.092941,1.09294 -5.524844,4.32003 -4.73964,6.04049 0.661538,1.44946 3.473556,2.23747 3.381613,4.0147 -0.08633,1.66884 -1.590305,3.91684 -2.121561,5.55522 -0.833226,2.56964 -0.688182,5.86634 -0.09229,8.46667 2.990268,13.04846 18.997956,18.58063 30.030208,11.78269 5.305954,-3.26946 9.384506,-9.89013 8.909843,-16.28061 -0.195527,-2.63268 -2.156619,-6.01993 -1.927754,-8.46666 0.201083,-2.14842 4.843198,-3.65557 4.303448,-5.82084 -0.206375,-0.82851 -1.186392,-1.54119 -1.760538,-2.11666 -0.767027,-0.76867 -1.811602,-2.28045 -2.910416,-2.55437 -1.606815,-0.40061 -4.385733,3.43464 -5.027083,4.67103 -2.840832,-2.01713 -6.269832,-3.68125 -9.789584,-3.96875 v -6.08541 H 71.09732 m 4.233333,6.95491 c 11.630819,-1.31622 21.38971,10.5501 18.914004,21.62009 -1.766887,7.90045 -8.636529,13.22361 -16.532754,13.97793 -14.6676,1.4015 -25.416515,-15.33181 -16.874939,-27.73627 3.434344,-4.98747 8.692276,-7.20521 14.493689,-7.86175 z m -11.641666,0.98259 0.264583,0.26458 z m 0.529166,0 0.264584,0.26458 z m 32.279166,4.7625 0.264584,0.26458 z m -38.893749,5.82083 0.264584,0.26458 z m 0,0.26458 0.264584,0.26459 z m -0.264583,0.26459 0.264583,0.26458 z m 0,0.26458 0.264583,0.26458 z"
         style="fill:#1f1f1f;stroke:none;stroke-width:0.264583" />
      <path
         id="path38"
         d="m 71.097323,120.46102 c 0,1.69788 0.534299,4.46434 -0.15965,6.02601 -0.410342,0.92348 -1.652534,1.03212 -2.486183,1.36271 -0.959274,0.38042 -2.110317,1.33348 -3.173968,1.28924 -1.556888,-0.0647 -3.458025,-2.88031 -4.498949,-3.91546 H 60.51399 c -1.092941,1.09294 -5.524844,4.32003 -4.73964,6.04049 0.661538,1.44946 3.473556,2.23747 3.381613,4.0147 -0.08633,1.66884 -1.590305,3.91684 -2.121561,5.55522 -0.833226,2.56964 -0.688182,5.86634 -0.09229,8.46667 2.990268,13.04846 18.997956,18.58063 30.030208,11.78269 5.305954,-3.26946 9.384506,-9.89013 8.909843,-16.28061 -0.195527,-2.63268 -2.156619,-6.01993 -1.927754,-8.46666 0.201083,-2.14842 4.843198,-3.65557 4.303448,-5.82084 -0.206375,-0.82851 -1.186392,-1.54119 -1.760538,-2.11666 -0.767027,-0.76867 -1.811602,-2.28045 -2.910416,-2.55437 -1.606815,-0.40061 -4.385733,3.43464 -5.027083,4.67103 -2.840832,-2.01713 -6.269832,-3.68125 -9.789584,-3.96875 v -6.08541 H 71.09732 m 4.233333,6.95491 c 11.630819,-1.31622 21.38971,10.5501 18.914004,21.62009 -1.766887,7.90045 -8.636529,13.22361 -16.532754,13.97793 -14.6676,1.4015 -25.416515,-15.33181 -16.874939,-27.73627 3.434344,-4.98747 8.692276,-7.20521 14.493689,-7.86175 z m -11.641666,0.98259 0.264583,0.26458 z m 0.529166,0 0.264584,0.26458 z m 32.279166,4.7625 0.264584,0.26458 z m -38.893749,5.82083 0.264584,0.26458 z m 0,0.26458 0.264584,0.26459 z m -0.264583,0.26459 0.264583,0.26458 z"
         style="fill:#1f1f1f;stroke:none;stroke-width:0.264583" />
      <path
         id="path36"
         d="m 71.097323,120.46102 c 0,1.69788 0.534299,4.46434 -0.15965,6.02601 -0.410342,0.92348 -1.652534,1.03212 -2.486183,1.36271 -0.959274,0.38042 -2.110317,1.33348 -3.173968,1.28924 -1.556888,-0.0647 -3.458025,-2.88031 -4.498949,-3.91546 H 60.51399 c -1.092941,1.09294 -5.524844,4.32003 -4.73964,6.04049 0.661538,1.44946 3.473556,2.23747 3.381613,4.0147 -0.08633,1.66884 -1.590305,3.91684 -2.121561,5.55522 -0.833226,2.56964 -0.688182,5.86634 -0.09229,8.46667 2.990268,13.04846 18.997956,18.58063 30.030208,11.78269 5.305954,-3.26946 9.384506,-9.89013 8.909843,-16.28061 -0.195527,-2.63268 -2.156619,-6.01993 -1.927754,-8.46666 0.201083,-2.14842 4.843198,-3.65557 4.303448,-5.82084 -0.206375,-0.82851 -1.186392,-1.54119 -1.760538,-2.11666 -0.767027,-0.76867 -1.811602,-2.28045 -2.910416,-2.55437 -1.606815,-0.40061 -4.385733,3.43464 -5.027083,4.67103 -2.840832,-2.01713 -6.269832,-3.68125 -9.789584,-3.96875 v -6.08541 H 71.09732 m 4.233333,6.95491 c 11.630819,-1.31622 21.38971,10.5501 18.914004,21.62009 -1.766887,7.90045 -8.636529,13.22361 -16.532754,13.97793 -14.6676,1.4015 -25.416515,-15.33181 -16.874939,-27.73627 3.434344,-4.98747 8.692276,-7.20521 14.493689,-7.86175 z m -11.641666,0.98259 0.264583,0.26458 z m 0.529166,0 0.264584,0.26458 z m 32.279166,4.7625 0.264584,0.26458 z m -38.893749,5.82083 0.264584,0.26458 z m 0,0.26458 0.264584,0.26459 z"
         style="fill:#1f1f1f;stroke:none;stroke-width:0.264583" />
      <path
         id="path34"
         d="m 71.097323,120.46102 c 0,1.69788 0.534299,4.46434 -0.15965,6.02601 -0.410342,0.92348 -1.652534,1.03212 -2.486183,1.36271 -0.959274,0.38042 -2.110317,1.33348 -3.173968,1.28924 -1.556888,-0.0647 -3.458025,-2.88031 -4.498949,-3.91546 H 60.51399 c -1.092941,1.09294 -5.524844,4.32003 -4.73964,6.04049 0.661538,1.44946 3.473556,2.23747 3.381613,4.0147 -0.08633,1.66884 -1.590305,3.91684 -2.121561,5.55522 -0.833226,2.56964 -0.688182,5.86634 -0.09229,8.46667 2.990268,13.04846 18.997956,18.58063 30.030208,11.78269 5.305954,-3.26946 9.384506,-9.89013 8.909843,-16.28061 -0.195527,-2.63268 -2.156619,-6.01993 -1.927754,-8.46666 0.201083,-2.14842 4.843198,-3.65557 4.303448,-5.82084 -0.206375,-0.82851 -1.186392,-1.54119 -1.760538,-2.11666 -0.767027,-0.76867 -1.811602,-2.28045 -2.910416,-2.55437 -1.606815,-0.40061 -4.385733,3.43464 -5.027083,4.67103 -2.840832,-2.01713 -6.269832,-3.68125 -9.789584,-3.96875 v -6.08541 H 71.09732 m 4.233333,6.95491 c 11.630819,-1.31622 21.38971,10.5501 18.914004,21.62009 -1.766887,7.90045 -8.636529,13.22361 -16.532754,13.97793 -14.6676,1.4015 -25.416515,-15.33181 -16.874939,-27.73627 3.434344,-4.98747 8.692276,-7.20521 14.493689,-7.86175 z m -11.641666,0.98259 0.264583,0.26458 z m 0.529166,0 0.264584,0.26458 z m 32.279166,4.7625 0.264584,0.26458 z m -38.893749,5.82083 0.264584,0.26458 z"
         style="fill:#1f1f1f;stroke:none;stroke-width:0.264583" />
      <path
         id="path32"
         d="m 71.097323,120.46102 c 0,1.69788 0.534299,4.46434 -0.15965,6.02601 -0.410342,0.92348 -1.652534,1.03212 -2.486183,1.36271 -0.959274,0.38042 -2.110317,1.33348 -3.173968,1.28924 -1.556888,-0.0647 -3.458025,-2.88031 -4.498949,-3.91546 H 60.51399 c -1.092941,1.09294 -5.524844,4.32003 -4.73964,6.04049 0.661538,1.44946 3.473556,2.23747 3.381613,4.0147 -0.08633,1.66884 -1.590305,3.91684 -2.121561,5.55522 -0.833226,2.56964 -0.688182,5.86634 -0.09229,8.46667 2.990268,13.04846 18.997956,18.58063 30.030208,11.78269 5.305954,-3.26946 9.384506,-9.89013 8.909843,-16.28061 -0.195527,-2.63268 -2.156619,-6.01993 -1.927754,-8.46666 0.201083,-2.14842 4.843198,-3.65557 4.303448,-5.82084 -0.206375,-0.82851 -1.186392,-1.54119 -1.760538,-2.11666 -0.767027,-0.76867 -1.811602,-2.28045 -2.910416,-2.55437 -1.606815,-0.40061 -4.385733,3.43464 -5.027083,4.67103 -2.840832,-2.01713 -6.269832,-3.68125 -9.789584,-3.96875 v -6.08541 H 71.09732 m 4.233333,6.95491 c 11.630819,-1.31622 21.38971,10.5501 18.914004,21.62009 -1.766887,7.90045 -8.636529,13.22361 -16.532754,13.97793 -14.6676,1.4015 -25.416515,-15.33181 -16.874939,-27.73627 3.434344,-4.98747 8.692276,-7.20521 14.493689,-7.86175 z m -11.641666,0.98259 0.264583,0.26458 z m 0.529166,0 0.264584,0.26458 z m 32.279166,4.7625 0.264584,0.26458 z"
         style="fill:#1f1f1f;stroke:none;stroke-width:0.264583" />
      <path
         id="path30"
         d="m 71.097323,120.46102 c 0,1.69788 0.534299,4.46434 -0.15965,6.02601 -0.410342,0.92348 -1.652534,1.03212 -2.486183,1.36271 -0.959274,0.38042 -2.110317,1.33348 -3.173968,1.28924 -1.556888,-0.0647 -3.458025,-2.88031 -4.498949,-3.91546 H 60.51399 c -1.092941,1.09294 -5.524844,4.32003 -4.73964,6.04049 0.661538,1.44946 3.473556,2.23747 3.381613,4.0147 -0.08633,1.66884 -1.590305,3.91684 -2.121561,5.55522 -0.833226,2.56964 -0.688182,5.86634 -0.09229,8.46667 2.990268,13.04846 18.997956,18.58063 30.030208,11.78269 5.305954,-3.26946 9.384506,-9.89013 8.909843,-16.28061 -0.195527,-2.63268 -2.156619,-6.01993 -1.927754,-8.46666 0.201083,-2.14842 4.843198,-3.65557 4.303448,-5.82084 -0.206375,-0.82851 -1.186392,-1.54119 -1.760538,-2.11666 -0.767027,-0.76867 -1.811602,-2.28045 -2.910416,-2.55437 -1.606815,-0.40061 -4.385733,3.43464 -5.027083,4.67103 -2.840832,-2.01713 -6.269832,-3.68125 -9.789584,-3.96875 v -6.08541 H 71.09732 m 4.233333,6.95491 c 11.630819,-1.31622 21.38971,10.5501 18.914004,21.62009 -1.766887,7.90045 -8.636529,13.22361 -16.532754,13.97793 -14.6676,1.4015 -25.416515,-15.33181 -16.874939,-27.73627 3.434344,-4.98747 8.692276,-7.20521 14.493689,-7.86175 z m -11.641666,0.98259 0.264583,0.26458 z m 0.529166,0 0.264584,0.26458 z"
         style="fill:#1f1f1f;stroke:none;stroke-width:0.264583" />
      <path
         id="path28"
         d="m 71.097323,120.46102 c 0,1.69788 0.534299,4.46434 -0.15965,6.02601 -0.410342,0.92348 -1.652534,1.03212 -2.486183,1.36271 -0.959274,0.38042 -2.110317,1.33348 -3.173968,1.28924 -1.556888,-0.0647 -3.458025,-2.88031 -4.498949,-3.91546 H 60.51399 c -1.092941,1.09294 -5.524844,4.32003 -4.73964,6.04049 0.661538,1.44946 3.473556,2.23747 3.381613,4.0147 -0.08633,1.66884 -1.590305,3.91684 -2.121561,5.55522 -0.833226,2.56964 -0.688182,5.86634 -0.09229,8.46667 2.990268,13.04846 18.997956,18.58063 30.030208,11.78269 5.305954,-3.26946 9.384506,-9.89013 8.909843,-16.28061 -0.195527,-2.63268 -2.156619,-6.01993 -1.927754,-8.46666 0.201083,-2.14842 4.843198,-3.65557 4.303448,-5.82084 -0.206375,-0.82851 -1.186392,-1.54119 -1.760538,-2.11666 -0.767027,-0.76867 -1.811602,-2.28045 -2.910416,-2.55437 -1.606815,-0.40061 -4.385733,3.43464 -5.027083,4.67103 -2.840832,-2.01713 -6.269832,-3.68125 -9.789584,-3.96875 v -6.08541 H 71.09732 m 4.233333,6.95491 c 11.630819,-1.31622 21.38971,10.5501 18.914004,21.62009 -1.766887,7.90045 -8.636529,13.22361 -16.532754,13.97793 -14.6676,1.4015 -25.416515,-15.33181 -16.874939,-27.73627 3.434344,-4.98747 8.692276,-7.20521 14.493689,-7.86175 z m -11.641666,0.98259 0.264583,0.26458 z"
         style="fill:#1f1f1f;stroke:none;stroke-width:0.264583" />
      <path
         id="path26"
         d="m 71.097323,120.46102 c 0,1.69788 0.534299,4.46434 -0.15965,6.02601 -0.410342,0.92348 -1.652534,1.03212 -2.486183,1.36271 -0.959274,0.38042 -2.110317,1.33348 -3.173968,1.28924 -1.556888,-0.0647 -3.458025,-2.88031 -4.498949,-3.91546 H 60.51399 c -1.092941,1.09294 -5.524844,4.32003 -4.73964,6.04049 0.661538,1.44946 3.473556,2.23747 3.381613,4.0147 -0.08633,1.66884 -1.590305,3.91684 -2.121561,5.55522 -0.833226,2.56964 -0.688182,5.86634 -0.09229,8.46667 2.990268,13.04846 18.997956,18.58063 30.030208,11.78269 5.305954,-3.26946 9.384506,-9.89013 8.909843,-16.28061 -0.195527,-2.63268 -2.156619,-6.01993 -1.927754,-8.46666 0.201083,-2.14842 4.843198,-3.65557 4.303448,-5.82084 -0.206375,-0.82851 -1.186392,-1.54119 -1.760538,-2.11666 -0.767027,-0.76867 -1.811602,-2.28045 -2.910416,-2.55437 -1.606815,-0.40061 -4.385733,3.43464 -5.027083,4.67103 -2.840832,-2.01713 -6.269832,-3.68125 -9.789584,-3.96875 v -6.08541 H 71.09732 m 4.233333,6.95491 c 11.630819,-1.31622 21.38971,10.5501 18.914004,21.62009 -1.766887,7.90045 -8.636529,13.22361 -16.532754,13.97793 -14.6676,1.4015 -25.416515,-15.33181 -16.874939,-27.73627 3.434344,-4.98747 8.692276,-7.20521 14.493689,-7.86175 z"
         style="fill:#1f1f1f;stroke:none;stroke-width:0.264583" />
    </g>
    <path
       id="path48"
       d="M 47.346491,54.657346 22.280701,79.374999"
       style="fill:none;stroke:#000000;stroke-width:4.02219583;stroke-linecap:butt;stroke-linejoin:miter;stroke-opacity:1;stroke-miterlimit:4;stroke-dasharray:none" />
  </g>
</svg>
